<svg width="30" height="29" viewBox="0 0 30 29" fill="none" xmlns="http://www.w3.org/2000/svg">
<path fill-rule="evenodd" clip-rule="evenodd" d="M14.6339 6.39556C15.122 6.86744 15.122 7.63252 14.6339 8.1044L9.26777 13.2916H23.75C24.4404 13.2916 25 13.8326 25 14.5C25 15.1673 24.4404 15.7083 23.75 15.7083H9.26777L14.6339 20.8956C15.122 21.3674 15.122 22.1325 14.6339 22.6044C14.1457 23.0763 13.3543 23.0763 12.8661 22.6044L5.36612 15.3544C5.1317 15.1278 5 14.8204 5 14.5C5 14.1795 5.1317 13.8722 5.36612 13.6456L12.8661 6.39556C13.3543 5.92367 14.1457 5.92367 14.6339 6.39556Z" fill="black"/>
</svg>
